<mxfile host="app.diagrams.net" modified="2024-05-31T09:44:25.827Z" agent="Mozilla/5.0 (Windows NT 10.0; Win64; x64) AppleWebKit/537.36 (KHTML, like Gecko) Chrome/125.0.0.0 Safari/537.36" etag="-awiyMf2VNHXG5YgQeAg" version="24.4.10" type="github">
  <diagram name="Страница — 1" id="SiGjXOODado0BrnOo55X">
    <mxGraphModel dx="869" dy="473" grid="1" gridSize="10" guides="1" tooltips="1" connect="1" arrows="1" fold="1" page="1" pageScale="1" pageWidth="827" pageHeight="1169" math="0" shadow="0">
      <root>
        <mxCell id="0" />
        <mxCell id="1" parent="0" />
        <mxCell id="0b_S1i_joHCOsqpCKxIH-1" value="" style="rhombus;whiteSpace=wrap;html=1;" vertex="1" parent="1">
          <mxGeometry x="440" y="240" width="80" height="40" as="geometry" />
        </mxCell>
        <mxCell id="0b_S1i_joHCOsqpCKxIH-2" value="Формирование отчета в системе АОС-Ш" style="rounded=1;html=1;whiteSpace=wrap;fontSize=8;" vertex="1" parent="1">
          <mxGeometry x="440" y="170" width="80" height="30" as="geometry" />
        </mxCell>
      </root>
    </mxGraphModel>
  </diagram>
</mxfile>
